<svg id="svg" version="1.1" xmlns="http://www.w3.org/2000/svg" xmlns:xlink="http://www.w3.org/1999/xlink" width="400" height="211.11111111111111" viewBox="0, 0, 400,211.11111111111111"><g id="svgg"><path id="path0" d="M216.191 71.735 C 216.114 71.813,216.051 103.222,216.051 141.535 L 216.051 211.193 238.965 211.193 L 261.880 211.193 261.880 141.522 C 261.880 78.186,261.849 71.839,261.546 71.723 C 261.088 71.547,216.367 71.559,216.191 71.735 " stroke="none" fill="#8c8c8c" fill-rule="evenodd"></path><path id="path1" d="M0.000 105.597 L 0.000 211.193 22.598 211.193 L 45.195 211.193 45.195 105.597 L 45.195 0.000 22.598 0.000 L 0.000 0.000 0.000 105.597 M71.647 72.492 L 71.700 144.984 94.509 144.984 L 117.318 144.984 117.371 72.492 L 117.424 0.000 94.509 0.000 L 71.594 0.000 71.647 72.492 M143.823 105.597 L 143.823 211.193 166.737 211.193 L 189.652 211.193 189.652 105.597 L 189.652 0.000 166.737 0.000 L 143.823 0.000 143.823 105.597 M216.051 22.598 L 216.051 45.195 238.631 45.195 C 251.050 45.195,261.362 45.138,261.546 45.067 C 261.847 44.951,261.880 42.764,261.880 22.469 L 261.880 0.000 238.965 0.000 L 216.051 0.000 216.051 22.598 M288.279 22.598 L 288.279 45.195 344.139 45.195 L 400.000 45.195 400.000 22.598 L 400.000 0.000 344.139 0.000 L 288.279 0.000 288.279 22.598 M288.279 141.394 L 288.279 211.193 311.193 211.193 L 334.108 211.193 334.108 141.522 C 334.108 78.186,334.077 71.839,333.774 71.723 C 333.590 71.652,323.278 71.595,310.859 71.595 L 288.279 71.595 288.279 141.394 " stroke="none" fill="#a41c34" fill-rule="evenodd"></path><path id="path2" d="" stroke="none" fill="#987490" fill-rule="evenodd"></path><path id="path3" d="" stroke="none" fill="#983864" fill-rule="evenodd"></path><path id="path4" d="" stroke="none" fill="#983c34" fill-rule="evenodd"></path></g></svg>